<svg xmlns="http://www.w3.org/2000/svg" width="251.611" height="153.987" viewBox="0 0 251.611 153.987">
  <g id="Groupe_1" data-name="Groupe 1" transform="translate(-1082 -29.779)">
    <text id="Dream" transform="translate(1116.434 148.163)" fill="#fff" font-size="46" font-family="SegoeUI, Segoe UI"><tspan x="0" y="0">Dream</tspan></text>
    <text id="Space" transform="translate(1082 102.025)" fill="#fff" font-size="46" font-family="SegoeUI, Segoe UI"><tspan x="0" y="0">Space</tspan></text>
    <path id="Tracé_1" data-name="Tracé 1" d="M307.238,171.872a76.96,76.96,0,0,0-61.256,30.3,74.355,74.355,0,1,1,66.7,123.688,77.089,77.089,0,0,0-5.443-153.987Z" transform="translate(938.87 -142.093)" fill="#fff"/>
    <path id="Tracé_2" data-name="Tracé 2" d="M419.509,207.042l-4.457,8.212-4.457,8.212-4.884-7.966-4.884-7.966,9.341-.246Z" transform="translate(903.986 -150.016)" fill="#fff"/>
    <path id="Tracé_3" data-name="Tracé 3" d="M434.852,181.42l-2.582,4.758-2.582,4.758-2.83-4.616-2.83-4.616,5.412-.143Z" transform="translate(898.759 -144.244)" fill="#fff"/>
    <path id="Tracé_4" data-name="Tracé 4" d="M406.513,178.76l-1.356,2.5-1.356,2.5-1.486-2.424-1.486-2.424,2.843-.075Z" transform="translate(903.285 -143.177)" fill="#fff"/>
  </g>
</svg>
